<svg xmlns="http://www.w3.org/2000/svg" version="1.1" xmlns:xlink="http://www.w3.org/1999/xlink" width="512" height="512" x="0" y="0" viewBox="0 0 60 60" style="enable-background:new 0 0 512 512" xml:space="preserve" class=""><g><path fill="#b760ea" d="M51.6 28.81 31.04 1.52a1.3 1.3 0 0 0-2.08 0L8.4 28.81a1.97 1.97 0 0 0 0 2.38l20.56 27.29a1.3 1.3 0 0 0 2.08 0L51.6 31.19a1.97 1.97 0 0 0 0-2.38z" opacity="1" data-original="#cd4c60" class=""></path><path fill="#a24bdb" d="M30 59a1.311 1.311 0 0 1-1.04-.52L8.4 31.19A2.005 2.005 0 0 1 8 30h10zM52 30a2.005 2.005 0 0 1-.4 1.19L31.04 58.48A1.311 1.311 0 0 1 30 59l12-29z" opacity="1" data-original="#a53c50" class=""></path><path fill="#b760ea" d="M42 30 30 59 18 30z" opacity="1" data-original="#cd4c60" class=""></path><path fill="#ca75f5" d="M42 30H18L30 1z" opacity="1" data-original="#f26376" class=""></path><path fill="#d98ff8" d="M26 22a1 1 0 0 1-.707-1.707l2-2a1 1 0 0 1 1.414 1.414l-2 2A1 1 0 0 1 26 22zM27 26a1 1 0 0 1-.707-1.707l6-6a1 1 0 0 1 1.414 1.414l-6 6A1 1 0 0 1 27 26z" opacity="1" data-original="#ff8a9e" class=""></path><g fill="#f26376"><path d="M26 38a1 1 0 0 1-.707-1.707l2-2a1 1 0 0 1 1.414 1.414l-2 2A1 1 0 0 1 26 38zM27 42a1 1 0 0 1-.707-1.707l6-6a1 1 0 0 1 1.414 1.414l-6 6A1 1 0 0 1 27 42z" fill="#ca75f5" opacity="1" data-original="#f26376" class=""></path></g></g></svg>