<svg xmlns="http://www.w3.org/2000/svg" version="1.1" xmlns:xlink="http://www.w3.org/1999/xlink" width="512" height="512" x="0" y="0" viewBox="0 0 512 512" style="enable-background:new 0 0 512 512" xml:space="preserve" class=""><g><path fill="#9ae6b4" d="m256 144.264 120.044-72.132L256 0 135.956 72.132z" opacity="1" data-original="#ffea76" class=""></path><path fill="#68d391" d="M376.044 72.132v147.802L256 292.066V144.264z" opacity="1" data-original="#ffd250" class=""></path><path fill="#48bb78" d="M135.956 72.132 256 144.264v147.802l-120.044-72.132z" opacity="1" data-original="#ffc25e" class=""></path><path fill="#feb2b2" d="M135.956 364.198 256 292.066l-120.044-72.132-120.043 72.132z" opacity="1" data-original="#ffab56" class=""></path><path fill="#fc8181" d="M256 292.066v147.802L135.956 512V364.198z" opacity="1" data-original="#ff982a" class=""></path><path fill="#f56565" d="m15.913 292.066 120.043 72.132V512L15.913 439.868z" opacity="1" data-original="#ff7e3d" class=""></path><path fill="#a3a3a3" d="M376.044 364.198 256 292.066l120.044-72.132 120.043 72.132z" opacity="1" data-original="#00e499" class=""></path><path fill="#5c5c5c" d="M256 292.066v147.802L376.044 512V364.198z" opacity="1" data-original="#00b594" class=""></path><path fill="#858585" d="m496.087 292.066-120.043 72.132V512l120.043-72.132z" opacity="1" data-original="#00d38e" class=""></path></g></svg>