<svg xmlns="http://www.w3.org/2000/svg" version="1.1" xmlns:xlink="http://www.w3.org/1999/xlink" width="512" height="512" x="0" y="0" viewBox="0 0 512 512" style="enable-background:new 0 0 512 512" xml:space="preserve" class=""><g transform="translate(100, 0)"><path fill="#4299e1" d="M221.797 452.102H88.313c-4 0-7.833-1.59-10.657-4.422a15.066 15.066 0 0 1-4.394-10.664c.082-30.825.136-39.586.156-42.883.008-1.008.012-1.528.012-2.051 0-42.973-21.09-83.316-56.418-107.922-6.133-4.27-8.2-12.394-4.856-19.078a161.976 161.976 0 0 1 58.457-64.535c25.742-16.242 55.504-24.824 86.07-24.824 60.153 0 114.942 33.093 142.993 86.367 3.582 6.797 1.465 15.203-4.914 19.492-36.414 24.508-58.153 65.3-58.153 109.121 0 .695.004 1.39.016 2.742.031 4.008.105 13.395.219 43.555a15.044 15.044 0 0 1-15.047 15.102zm0 0" opacity="1" data-original="#ccd4e1" class=""></path><path fill="#3182ce" d="M299.68 262.09c-28.008-53.192-82.672-86.258-142.711-86.363v276.375h64.828A15.044 15.044 0 0 0 236.844 437c-.11-30.156-.188-39.543-.219-43.555a304.047 304.047 0 0 1-.016-2.738c0-43.824 21.739-84.617 58.153-109.121 6.379-4.293 8.496-12.7 4.918-19.496zm0 0" opacity="1" data-original="#adb6c9" class=""></path><path fill="#bee3f8" d="M221.797 452.102H88.313c-4 0-7.833-1.59-10.657-4.422a15.066 15.066 0 0 1-4.394-10.664c.082-30.825.136-39.582.156-42.883.008-1.008.012-1.528.012-2.051a131.22 131.22 0 0 0-6.848-41.934c-1.547-4.59-5.164-12.902-5.164-12.902s11.855-5.293 14.93-6.258c51.66-17.82 87.097-50.851 107.746-75.449 22.742-27.094 33.144-50.293 33.246-50.523 1.742-3.93 5.633-15.125 5.633-15.125s12.097 6.058 15.793 8.246c25.875 15.3 46.937 37.418 60.91 63.953 3.582 6.8 1.465 15.207-4.914 19.496-36.414 24.504-58.153 65.297-58.153 109.121 0 .695.004 1.387.016 2.738.031 4.012.105 13.399.219 43.555.015 4-1.563 7.844-4.387 10.676s-6.66 4.426-10.66 4.426zm0 0" opacity="1" data-original="#f2f4fb" class=""></path><path fill="#90cdf4" d="M299.68 262.09c-13.977-26.54-35.04-48.652-60.91-63.953-3.7-2.188-15.793-8.25-15.793-8.25s-3.895 11.199-5.637 15.129c-.102.23-10.504 23.425-33.242 50.52a265.223 265.223 0 0 1-27.125 27.862v168.704h64.824a15.046 15.046 0 0 0 15.047-15.105c-.11-30.157-.184-39.544-.215-43.552-.012-1.351-.02-2.047-.02-2.742 0-43.82 21.743-84.613 58.157-109.121 6.375-4.289 8.492-12.695 4.914-19.492zm0 0" opacity="1" data-original="#d9e3ec" class=""></path><path fill="#4299e1" d="M296.93 512H15.047C6.738 512 0 505.262 0 496.953v-60.058c0-8.31 6.738-15.047 15.047-15.047H296.93c8.308 0 15.047 6.738 15.047 15.047v60.058c0 8.309-6.739 15.047-15.047 15.047zm0 0" opacity="1" data-original="#ccd4e1" class=""></path><path fill="#3182ce" d="M296.93 421.848H156.969V512h139.96c8.31 0 15.048-6.738 15.048-15.047v-60.058c0-8.31-6.739-15.047-15.047-15.047zm0 0" opacity="1" data-original="#adb6c9" class=""></path><path fill="#bee3f8" d="M155.988 193.086c-.062 0-.129-.004-.191-.004-51.504-.644-89.984-54.36-89.984-101.953C65.71 41.746 106.047.855 155.73.004c.168-.004.344-.004.516 0 49.668.848 90 41.726 89.918 91.125 0 47.594-38.484 101.308-89.988 101.953-.063 0-.125.004-.188.004zm0 0" opacity="1" data-original="#f2f4fb" class=""></path><path fill="#90cdf4" d="M156.969.023v193.04c51.105-1.188 89.195-54.586 89.195-101.934.082-49.156-39.855-89.871-89.195-91.106zm0 0" opacity="1" data-original="#d9e3ec" class=""></path><path fill="#4299e1" d="M237.668 131.254s-12.383 1.355-22.07-10.797c-15.18-19.047-22.883-21.578-40.66-23.465-6.81-.722-14.524-1.543-23.004-3.617-27.34-6.684-59.508-38.707-70.883-52.453l9.644-11.938C107.887 10.72 130.988.426 155.73.004c.172-.004.344-.004.516 0 49.684.851 90.02 41.742 89.918 91.156 0 8.16-1.117 16.586-3.316 25.012-1.516 5.789-5.18 15.082-5.18 15.082zm0 0" opacity="1" data-original="#ccd4e1" class=""></path><path fill="#3182ce" d="M156.969.023v94.454c6.515 1.289 12.535 1.937 17.965 2.515 17.777 1.887 25.484 4.418 40.664 23.465 9.683 12.152 22.07 10.797 22.07 10.797s3.664-9.293 5.176-15.082c2.203-8.426 3.32-16.852 3.32-25.012.102-49.172-39.844-89.902-89.195-91.137zm0 0" opacity="1" data-original="#adb6c9" class=""></path></g></svg>