<svg xmlns="http://www.w3.org/2000/svg" version="1.1" xmlns:xlink="http://www.w3.org/1999/xlink" width="512" height="512" x="0" y="0" viewBox="0 0 512 512" style="enable-background:new 0 0 512 512" xml:space="preserve" class=""><g><path d="M301.632 276.801 235.2 210.37 13.759 431.81c-18.345 18.345-18.345 48.088 0 66.432 18.345 18.345 48.088 18.345 66.432 0l221.441-221.441z" style="" fill="#b29476" data-original="#b29476"></path><path d="m301.632 276.801-33.216-33.216L13.759 498.241c18.345 18.345 48.088 18.345 66.432 0l221.441-221.44z" style="" fill="#a58868" data-original="#a58868"></path><path d="m423.423 155.008 33.217-33.215-66.433-66.433-33.215 33.217L268.415 0 135.552 132.865l243.583 243.583L512 243.585z" style="" fill="#dfdfe1" data-original="#dfdfe1"></path><path d="m423.423 155.008 33.217-33.215-33.217-33.216-166.08 166.08 121.792 121.791L512 243.584z" style="" fill="#cfcdd2" data-original="#cfcdd2"></path><path d="M359.851 81.685h93.948v46.974h-93.948z" style="" transform="rotate(-134.999 406.827 105.174)" fill="#88888f" data-original="#88888f"></path><path d="M399.933 98.308h46.974v46.974h-46.974z" style="" transform="rotate(-134.999 423.422 121.797)" fill="#56545a" data-original="#56545a"></path></g></svg>