<svg xmlns="http://www.w3.org/2000/svg" version="1.1" xmlns:xlink="http://www.w3.org/1999/xlink" width="512" height="512" x="0" y="0" viewBox="0 0 512.001 512.001" style="enable-background:new 0 0 512 512" xml:space="preserve" class=""><g><path d="m499.92 188.26-165.839-15.381L268.205 19.91c-4.612-10.711-19.799-10.711-24.411 0l-65.875 152.97L12.08 188.26c-11.612 1.077-16.305 15.52-7.544 23.216l125.126 109.922-36.618 162.476c-2.564 11.376 9.722 20.302 19.749 14.348L256 413.188l143.207 85.034c10.027 5.954 22.314-2.972 19.75-14.348l-36.619-162.476 125.126-109.922c8.761-7.696 4.068-22.139-7.544-23.216z" style="" fill="#ffdc64" data-original="#ffdc64"></path><path d="M268.205 19.91c-4.612-10.711-19.799-10.711-24.411 0l-65.875 152.97L12.08 188.26c-11.612 1.077-16.305 15.52-7.544 23.216l125.126 109.922-36.618 162.476c-2.564 11.376 9.722 20.302 19.749 14.348l31.963-18.979c4.424-182.101 89.034-310.338 156.022-383.697L268.205 19.91z" style="" fill="#ffc850" data-original="#ffc850" class=""></path></g></svg>