<svg xmlns="http://www.w3.org/2000/svg" viewBox="0 0 52.59 28"><defs><style>.cls-1{opacity:0.4;isolation:isolate;}.cls-2{fill:#db8;}.cls-3{fill:#a86;}.cls-4{fill:#fff;}</style></defs><g id="레이어_2" data-name="레이어 2"><g id="base"><path class="cls-1" d="M0,2l52.59-.08v26L0,28,13.08,14.92Z"/><polygon class="cls-2" points="0.59 0 52.59 0 52.59 26 0.59 26 13.67 12.92 0.59 0"/><polygon class="cls-3" points="23.96 10.63 19.22 5.88 16.84 8.25 21.59 13 16.84 17.75 19.22 20.12 23.96 15.37 26.34 13 23.96 10.63"/><polygon class="cls-3" points="33.96 10.63 29.22 5.88 26.84 8.25 31.59 13 26.84 17.75 29.22 20.12 33.96 15.37 36.34 13 33.96 10.63"/><polygon class="cls-3" points="43.96 10.63 39.22 5.88 36.84 8.25 41.59 13 36.84 17.75 39.22 20.12 43.96 15.37 46.34 13 43.96 10.63"/></g><g id="active"><polygon class="cls-4" points="43.96 10.63 39.22 5.88 36.84 8.25 41.59 13 36.84 17.75 39.22 20.12 43.96 15.37 46.34 13 43.96 10.63"/></g></g></svg>