<svg xmlns="http://www.w3.org/2000/svg" xmlns:xlink="http://www.w3.org/1999/xlink" viewBox="0 0 59 33.02"><defs><style>.cls-1{fill:url(#무제_그라디언트_41);}.cls-2{mask:url(#mask);}.cls-3{fill:#fff;}</style><linearGradient id="무제_그라디언트_41" x1="3.2" y1="-3.27" x2="56.55" y2="36.87" gradientUnits="userSpaceOnUse"><stop offset="0" stop-color="#fff"/><stop offset="0.37" stop-color="#fdfdfd"/><stop offset="0.51" stop-color="#f6f6f6"/><stop offset="0.6" stop-color="#ebebeb"/><stop offset="0.68" stop-color="#dadada"/><stop offset="0.75" stop-color="#c4c4c4"/><stop offset="0.8" stop-color="#a8a8a8"/><stop offset="0.86" stop-color="#888"/><stop offset="0.91" stop-color="#626262"/><stop offset="0.95" stop-color="#373737"/><stop offset="0.99" stop-color="#090909"/><stop offset="1"/></linearGradient><mask id="mask" x="0" y="0" width="59" height="33.02" maskUnits="userSpaceOnUse"><rect class="cls-1" y="0.02" width="59" height="33"/></mask></defs><g id="레이어_2" data-name="레이어 2"><g id="레이어_2-2" data-name="레이어 2"><g class="cls-2"><path class="cls-3" d="M59,26l-2.69-.23C57.5,24.52,54,21,54,21c-.57,2.85-.07,4.07.46,4.6-2-.2-4-.43-5.8-.67,1.42-1.46-3.38-6.44-3.38-6.44v.12c-.38,3.45,0,5.1.51,5.9-2.24-.35-4.33-.73-6.29-1.13C41.87,18.69,37,15,37,15c-1.59,4.25-1.21,6.51-.5,7.71q-2.7-.64-5-1.34C35.59,15.61,30,10,30,10c-4,4.7-2.64,8.5-1.3,10.49-2-.67-3.71-1.36-5.24-2.05C29.72,10.74,24,5,24,5c-6.39,3.19-4.49,9.57-3.46,12a31.28,31.28,0,0,1-4.14-2.59C17.45,12.77,19.91,7.56,15,1c0,0-4.17,3.47-3.23,8.11C7.06-.82,2,0,2,0a13.69,13.69,0,0,0,8.36,12.74A18.22,18.22,0,0,0,0,15a10.37,10.37,0,0,0,6.13,3.79,10.53,10.53,0,0,0,8.16-2.06c.91.65,1.88,1.26,2.89,1.84-2.27.32-5.11,1.78-7.18,6.43,0,0,8,1.77,12.29-3.93,1.58.66,3.21,1.26,4.88,1.82-1.82.27-4.69,1.75-7.17,7.64,0,0,10.25.43,10.06-6.74,1.84.54,3.69,1,5.53,1.44-1.41.59-3.4,2.39-4.59,7.77,0,0,8.88-2.62,7.93-7.05,2.5.51,4.91.92,7.15,1.25C44.15,28.73,42,33,42,33c6.34-2.82,6.72-4.65,6.4-5.48,2,.27,3.84.47,5.39.62C52.6,29.08,52,32.07,52,32.07c4.28-2.1,4-3.26,3.45-3.76,2.22.19,3.55.25,3.55.25Z"/></g></g></g></svg>