<?xml version="1.0"?>
<svg xmlns="http://www.w3.org/2000/svg" xmlns:xlink="http://www.w3.org/1999/xlink" xmlns:svgjs="http://svgjs.com/svgjs" version="1.1" width="512" height="512" x="0" y="0" viewBox="0 0 512 512" style="enable-background:new 0 0 512 512" xml:space="preserve"><g><g xmlns="http://www.w3.org/2000/svg"><g><path d="m345 82c-36.7 0-69.2 18.4-89 46.6-19.8-28.2-52.3-46.6-89-46.6-26.2 0-50.2 9.4-69 24.9v-4.9c0-11-9-20-20-20s-20 9-20 20v308c0 11 9 20 20 20s20-9 20-20v-218c0-38.6 31-70 69-70s69 31.4 69 70v218c0 11 9 20 20 20s20-9 20-20v-218c0-38.6 31-70 69-70s69 31.4 69 70v93c0 11 9 20 20 20s20-9 20-20v-93c0-60.7-48.9-110-109-110z" fill="#ffffff" data-original="#000000" style=""/><path d="m434 430c-11 0-20-9-20-20v-50c0-11 9-20 20-20s20 9 20 20v50c0 11-9 20-20 20z" fill="#ffffff" data-original="#000000" style=""/></g></g></g></svg>
