<?xml version="1.0" encoding="iso-8859-1"?>
<!-- Generator: Adobe Illustrator 19.0.0, SVG Export Plug-In . SVG Version: 6.00 Build 0)  -->
<svg version="1.1" id="Capa_1" xmlns="http://www.w3.org/2000/svg" xmlns:xlink="http://www.w3.org/1999/xlink" x="0px" y="0px"
	 viewBox="0 0 512 512" style="enable-background:new 0 0 512 512;" xml:space="preserve">
<g>
	<g>
		<path fill="#fff" d="M419.965,66.383c-20.244-20.972-44.34-37.342-71.617-48.656C319.991,5.964,288.921,0,256,0
			c-32.921,0-63.991,5.964-92.348,17.727c-27.277,11.314-51.373,27.685-71.617,48.656C52.031,107.824,30,164.511,30,226
			c0,28.195,10.157,54.245,28.6,73.351C77.679,319.115,104.457,330,134,330h30.749c-1.863,17.312-6.973,27.719-12.708,39.38
			c-7.753,15.764-16.54,33.631-16.54,67.62c0,42.757,32.243,75,75,75h91c42.757,0,75-32.243,75-75
			c0-33.989-8.787-51.856-16.54-67.62c-5.735-11.661-10.845-22.068-12.708-39.38H378c29.543,0,56.321-10.885,75.4-30.649
			C471.843,280.245,482,254.195,482,226C482,164.511,459.969,107.824,419.965,66.383z M301.5,482h-91c-26.495,0-45-18.505-45-45
			c0-27.011,6.237-39.694,13.46-54.38c6.524-13.265,13.779-28.022,15.916-52.62h122.249c2.136,24.598,9.391,39.355,15.915,52.62
			c7.223,14.686,13.46,27.369,13.46,54.38C346.5,463.495,327.995,482,301.5,482z M378,300H134c-42.879,0-74-31.121-74-74
			c0-113.57,82.43-196,196-196s196,82.43,196,196C452,268.879,420.879,300,378,300z"/>
	</g>
</g>
<g>
</g>
<g>
</g>
<g>
</g>
<g>
</g>
<g>
</g>
<g>
</g>
<g>
</g>
<g>
</g>
<g>
</g>
<g>
</g>
<g>
</g>
<g>
</g>
<g>
</g>
<g>
</g>
<g>
</g>
</svg>
