<?xml version="1.0"?>
<svg xmlns="http://www.w3.org/2000/svg" xmlns:xlink="http://www.w3.org/1999/xlink" xmlns:svgjs="http://svgjs.com/svgjs" version="1.1" width="512" height="512" x="0" y="0" viewBox="0 0 512 512" style="enable-background:new 0 0 512 512" xml:space="preserve" class=""><g><g xmlns="http://www.w3.org/2000/svg"><g><path d="m233 425h-31.7c-20 0-38.2-8.3-51.2-23.3-22.4-25.9-21.3-59.6 2.7-83.8.4-.4 173.4-150.3 173.5-150.5 4.5-3.6 9.9-9.5 10.6-16.8.5-5.3-1.7-10.7-6.4-16.2-3.7-4.3-10.4-9.5-21-9.5h-156.5c-11 0-20-9-20-20s9-20 20-20h156.6c20 0 38.2 8.3 51.2 23.3 11.9 13.8 17.4 29.6 16 45.9-1.5 16.5-10.4 32.2-25 44.1l-171 148.2c-8.9 9.3-9 19-.3 29 3.7 4.3 10.4 9.5 21 9.5h31.5c11 0 20 9 20 20s-9 20.1-20 20.1z" fill="#ffffff" data-original="#000000" style=""/><path d="m358.1 425h-50.1c-11 0-20-9-20-20s9-20 20-20h50.1c11 0 20 9 20 20s-9 20-20 20z" fill="#ffffff" data-original="#000000" style=""/></g></g></g></svg>
