<svg xmlns="http://www.w3.org/2000/svg" xmlns:xlink="http://www.w3.org/1999/xlink" viewBox="0 0 14 14"><defs><style>.cls-1{fill:#fff;}.cls-2{mask:url(#mask);}.cls-3{fill:#a472e1;}.cls-4{mask:url(#mask-2);}.cls-5{fill:#9d9996;}</style><mask id="mask" x="0" y="0" width="14" height="14" maskUnits="userSpaceOnUse"><polygon class="cls-1" points="0 14 0 0 14 0 0 14"/></mask><mask id="mask-2" x="0" y="0" width="14" height="14" maskUnits="userSpaceOnUse"><polygon class="cls-1" points="14 14 0 14 14 0 14 14"/></mask></defs><g id="레이어_2" data-name="레이어 2"><g id="제논5"><g class="cls-2"><rect class="cls-3" width="14" height="14"/><path class="cls-1" d="M6,2H8V5L9,6h3V8H9L8,9v3H6V9L5,8H2V6H5L6,5Z"/><rect class="cls-3" x="6" y="6" width="2" height="2"/></g><g class="cls-4"><rect class="cls-5" width="14" height="14"/><circle class="cls-1" cx="7" cy="4" r="2"/><circle class="cls-5" cx="7" cy="4" r="1"/><path class="cls-1" d="M8,11V5H6v6c-1,0-2-1-2-3H5V7H2V8H3a3.85,3.85,0,0,0,4,3.9A3.85,3.85,0,0,0,11,8h1V7H9V8h1a2.72,2.72,0,0,1-.62,2.25A2.54,2.54,0,0,1,8,11Z"/></g></g></g></svg>