<?xml version="1.0" encoding="iso-8859-1"?>
<!-- Generator: Adobe Illustrator 19.0.0, SVG Export Plug-In . SVG Version: 6.00 Build 0)  -->
<svg version="1.1" id="Capa_1" xmlns="http://www.w3.org/2000/svg" xmlns:xlink="http://www.w3.org/1999/xlink" x="0px" y="0px"
	 viewBox="0 0 512 512" style="enable-background:new 0 0 512 512;" xml:space="preserve">
<path style="fill:#F98357;" d="M388.075,433.261c35.483-0.984,70.679-15.029,97.76-42.109L512,364.986l-26.165-26.165
	c-16.586-16.586-36.215-28.249-57.092-35.048c5.173-5.998,9.969-12.351,14.319-19.012c18.153-27.768,28.706-60.961,28.706-96.581
	l-0.011-38.951h-38.939c-26.028,0-50.752,5.631-73.002,15.727c-4.635-37.784-21.461-74.364-50.465-103.369L256,8.238l-53.349,53.349
	c-29.004,29.004-45.806,65.585-50.442,103.369c-22.263-10.107-46.974-15.727-73.013-15.738l-38.951,0.012v38.939
	c0,44.204,16.219,84.597,43.014,115.604c-20.854,6.799-40.496,18.451-57.081,35.036L0,364.986l26.177,26.177
	c56.234,56.234,147.412,56.234,203.658-0.011L256,364.986l26.177,26.177c8.722,8.722,18.291,16.092,28.443,22.125
	C334.382,427.367,361.303,434.028,388.075,433.261z"/>
<path style="fill:#F2603F;" d="M29.257,391.106l26.177-26.177c16.586-16.586,36.227-28.237,57.081-35.036
	C85.719,298.885,69.5,258.493,69.5,214.288v-38.939l38.951-0.012c26.039,0.012,50.751,5.631,73.013,15.738
	c4.636-37.784,21.438-74.364,50.442-103.369l51.781-51.781L256,8.238l-53.349,53.349c-29.004,29.004-45.806,65.585-50.442,103.369
	c-22.263-10.106-46.974-15.727-73.013-15.738l-38.951,0.012v38.939c0,44.204,16.219,84.597,43.014,115.604
	c-20.854,6.799-40.496,18.451-57.081,35.036L0,364.986l26.177,26.177c6.105,6.105,12.623,11.546,19.463,16.325L29.257,391.106z"/>
<path style="fill:#964915;" d="M367.131,262.628c-2.206-3.801-7.075-5.096-10.877-2.89l-92.3,53.546l-0.006-71.756l61.336-35.583
	c3.801-2.206,5.095-7.075,2.89-10.877c-2.205-3.802-7.074-5.096-10.877-2.89l-53.35,30.95l-0.008-93.362
	c0-4.395-3.563-7.958-7.959-7.958c-4.395,0-7.957,3.564-7.957,7.959l0.008,93.352l-53.336-30.942
	c-3.801-2.206-8.672-0.911-10.877,2.89c-2.205,3.801-0.912,8.672,2.89,10.877l61.324,35.576l0.006,71.764l-92.3-53.546
	c-3.801-2.205-8.672-0.912-10.877,2.89c-2.205,3.801-0.912,8.672,2.89,10.877l100.289,58.181l0.015,164.117
	c0,4.395,3.564,7.958,7.959,7.958s7.957-3.564,7.957-7.959l-0.015-164.118l100.286-58.178
	C368.043,271.3,369.337,266.43,367.131,262.628z"/>
<g>
</g>
<g>
</g>
<g>
</g>
<g>
</g>
<g>
</g>
<g>
</g>
<g>
</g>
<g>
</g>
<g>
</g>
<g>
</g>
<g>
</g>
<g>
</g>
<g>
</g>
<g>
</g>
<g>
</g>
</svg>
