<svg xmlns="http://www.w3.org/2000/svg" version="1.1" xmlns:xlink="http://www.w3.org/1999/xlink" width="512" height="512" x="0" y="0" viewBox="0 0 512 512" style="enable-background:new 0 0 512 512" xml:space="preserve" class=""><g><path fill="#ff9100" d="M506.8 158.5c-2.999-5.4-9-8.101-15-7.5l-66 9.6-6.599-32.701c-1.199-5.099-4.799-9.3-9.901-11.1-4.8-1.799-10.5-.598-14.4 2.701l-64.801 53.399L345.7 78.401c.901-5.101-.899-10.501-5.099-13.801-3.9-3.3-9.3-4.501-14.399-2.699L294.699 72.4 269.801 8.699C267.4 2.999 261.7 0 256 0s-11.4 2.999-13.801 8.699L217.301 72.4 185.8 61.901c-5.1-1.802-10.5-.601-14.4 2.699-4.2 3.3-6 8.699-5.099 13.801l15.601 94.499-64.802-53.4c-3.9-3.3-9.6-4.501-14.399-2.701-5.101 1.8-8.701 6-9.901 11.1L86.201 160.6l-66-9.6c-6-.601-12.001 2.1-15 7.5-3.002 5.4-2.701 11.999 1.199 16.8l41.1 52.2-24.901 22.2c-3.898 3.6-5.698 8.699-4.799 14.101.901 5.099 4.501 9.3 9.6 11.1L120.7 310l-30 30c-3.6 3.6-5.099 9-4.2 13.801 1.201 5.099 4.801 9.3 9.6 11.1L250.6 422.8c1.8.599 3.6.899 5.4.899s3.6-.3 5.4-.899l154.501-57.9c4.799-1.8 8.399-6 9.6-11.1.899-4.801-.601-10.201-4.2-13.801l-30-30 93.3-35.099c5.099-1.8 8.699-6 9.6-11.1.899-5.402-.901-10.501-4.799-14.101L464.5 227.5l41.1-52.2c3.9-4.801 4.201-11.4 1.2-16.8z" opacity="1" data-original="#ff9100"></path><path fill="#ff641a" d="m505.6 175.3-41.1 52.2 24.901 22.2c3.898 3.6 5.698 8.699 4.799 14.101-.901 5.099-4.501 9.3-9.6 11.1L391.3 310l30 30c3.6 3.6 5.099 9 4.2 13.801-1.201 5.099-4.801 9.3-9.6 11.1L261.4 422.8c-1.8.599-3.6.899-5.4.899V0c5.7 0 11.4 2.999 13.801 8.699L294.699 72.4 326.2 61.901c5.1-1.802 10.5-.601 14.4 2.699 4.2 3.3 6 8.699 5.099 13.801L330.098 172.9l64.802-53.4c3.9-3.3 9.6-4.501 14.399-2.701 5.101 1.8 8.701 6 9.901 11.1l6.599 32.701 66-9.6c6-.601 12.001 2.1 15 7.5 3.002 5.4 2.701 11.999-1.199 16.8z" opacity="1" data-original="#ff641a"></path><path fill="#ff641a" d="M354.401 268.599 271 324.099V497c0 8.399-6.599 15-15 15s-15-6.601-15-15V324.099L157.599 268.6c-6.899-4.799-8.699-14.099-4.199-21 4.799-6.899 14.099-8.699 21-4.2l66.6 44.7V226c0-8.401 6.599-15 15-15s15 6.599 15 15v62.1l66.599-44.702c6.901-4.499 16.201-2.699 21 4.2 4.501 6.902 2.701 16.202-4.198 21.001z" opacity="1" data-original="#ff641a"></path><path fill="#f03800" d="M354.401 268.599 271 324.099V497c0 8.399-6.599 15-15 15V211c8.401 0 15 6.599 15 15v62.1l66.599-44.702c6.901-4.499 16.201-2.699 21 4.2 4.501 6.902 2.701 16.202-4.198 21.001z" opacity="1" data-original="#f03800"></path></g></svg>