<svg xmlns="http://www.w3.org/2000/svg" version="1.1" xmlns:xlink="http://www.w3.org/1999/xlink" width="512" height="512" x="0" y="0" viewBox="0 0 47.336 47.336" style="enable-background:new 0 0 512 512" xml:space="preserve"><g><path d="M23.668 31.371c8.725 0 12.99 2.557 14.425 3.66.781.6 1.716 1.004 2.701 1.044 2.662.11 4.612-2.06 5.562-4.11 1.278-2.758 1.268-5.952.195-8.797-5.726-15.183-15.78-23-21.215-23h-3c-6.38 0-15.825 7.817-21.551 23-1.073 2.844-1.083 6.039.195 8.797.95 2.05 2.9 4.22 5.562 4.11.984-.041 1.92-.444 2.701-1.044 1.435-1.104 5.7-3.66 14.425-3.66z" style="" fill="#e57e25" data-original="#e57e25"></path><circle cx="14.668" cy="21.371" r="7" style="" fill="#f0c419" data-original="#f0c419"></circle><circle cx="37.668" cy="25.371" r="4" style="" fill="#f0c419" data-original="#f0c419"></circle><path d="M33.159 32.646c-2.298-.711-5.399-1.276-9.491-1.276-3.275 0-5.922.36-8.026.869l-1.24 8.814a5.29 5.29 0 0 0 5.225 6.115h9.618a5.29 5.29 0 0 0 5.225-6.115l-1.311-8.407z" style="" fill="#fbd490" data-original="#fbd490"></path><path d="M40.094 10.748c-3.548-4.781-7.384-7.931-10.619-9.4a7.494 7.494 0 0 0-3.807 6.523 7.5 7.5 0 0 0 14.426 2.877z" style="" fill="#f0c419" data-original="#f0c419"></path></g></svg>